<svg width="25" height="11" viewBox="0 0 25 11" fill="none" xmlns="http://www.w3.org/2000/svg">
<path d="M0.208978 10C0.0963113 10 0.039978 9.94368 0.039978 9.83101V0.627008C0.039978 0.514341 0.0963113 0.458008 0.208978 0.458008H1.62598C1.73864 0.458008 1.79498 0.514341 1.79498 0.627008V4.99501L5.61698 0.549007C5.66898 0.488341 5.73831 0.458008 5.82498 0.458008H7.48898C7.58431 0.458008 7.63198 0.492674 7.63198 0.562008C7.63198 0.596674 7.61464 0.631341 7.57998 0.666008L4.56398 4.07201L8.02198 9.79201C8.03931 9.84401 8.04798 9.87434 8.04798 9.88301C8.04798 9.91768 8.03498 9.94801 8.00898 9.97401C7.98298 9.99134 7.94831 10 7.90498 10H6.22798C6.14131 10 6.07631 9.96101 6.03298 9.88301L3.40698 5.37201L1.79498 7.19201V9.83101C1.79498 9.94368 1.73864 10 1.62598 10H0.208978Z" fill="#1D1D1D"/>
<path d="M8.5889 10C8.47623 10 8.4199 9.94368 8.4199 9.83101V0.627008C8.4199 0.514341 8.47623 0.458008 8.5889 0.458008H10.0839C10.1792 0.458008 10.2442 0.497008 10.2789 0.575008L13.5809 6.06101L16.8439 0.575008C16.8872 0.497008 16.9522 0.458008 17.0389 0.458008H18.4949C18.6076 0.458008 18.6639 0.514341 18.6639 0.627008V9.83101C18.6639 9.94368 18.6076 10 18.4949 10H17.1429C17.0302 10 16.9739 9.94368 16.9739 9.83101V3.38301L14.1789 8.06301C14.1442 8.14101 14.0792 8.18001 13.9839 8.18001H13.0999C13.0132 8.18001 12.9482 8.14101 12.9049 8.06301L10.1099 3.44801V9.83101C10.1099 9.94368 10.0536 10 9.9409 10H8.5889Z" fill="#1D1D1D"/>
<path d="M21.657 10.182C20.9464 10.182 20.3397 9.99134 19.837 9.61001C19.3344 9.22001 18.9877 8.66967 18.797 7.95901L18.784 7.89401C18.784 7.82467 18.8274 7.77701 18.914 7.75101L20.253 7.38701L20.305 7.37401C20.383 7.37401 20.435 7.42168 20.461 7.51701C20.5564 7.81168 20.7037 8.04567 20.903 8.21901C21.111 8.38367 21.3624 8.46601 21.657 8.46601C22.1337 8.46601 22.4717 8.30567 22.671 7.98501C22.879 7.65567 22.983 7.18767 22.983 6.58101V2.10901H20.331C20.2184 2.10901 20.162 2.05267 20.162 1.94001V0.627008C20.162 0.514341 20.2184 0.458008 20.331 0.458008H24.569C24.6817 0.458008 24.738 0.514341 24.738 0.627008V6.76301C24.738 9.04234 23.711 10.182 21.657 10.182Z" fill="#1D1D1D"/>
</svg>
