<svg width="29" height="13" viewBox="0 0 29 13" fill="none" xmlns="http://www.w3.org/2000/svg">
<path d="M1.20904 11C1.09637 11 1.04004 10.9437 1.04004 10.831V1.62701C1.04004 1.51434 1.09637 1.45801 1.20904 1.45801H2.62604C2.73871 1.45801 2.79504 1.51434 2.79504 1.62701V5.99501L6.61704 1.54901C6.66904 1.48834 6.73837 1.45801 6.82504 1.45801H8.48904C8.58437 1.45801 8.63204 1.49267 8.63204 1.56201C8.63204 1.59667 8.61471 1.63134 8.58004 1.66601L5.56404 5.07201L9.02204 10.792C9.03937 10.844 9.04804 10.8743 9.04804 10.883C9.04804 10.9177 9.03504 10.948 9.00904 10.974C8.98304 10.9913 8.94837 11 8.90504 11H7.22804C7.14137 11 7.07637 10.961 7.03304 10.883L4.40704 6.37201L2.79504 8.19201V10.831C2.79504 10.9437 2.73871 11 2.62604 11H1.20904Z" fill="url(#paint0_linear_0_1)" fill-opacity="0.25"/>
<path d="M10.629 11C10.5163 11 10.46 10.9437 10.46 10.831V1.62701C10.46 1.51434 10.5163 1.45801 10.629 1.45801H12.124C12.2193 1.45801 12.2843 1.49701 12.319 1.57501L15.621 7.06101L18.884 1.57501C18.9273 1.49701 18.9923 1.45801 19.079 1.45801H20.535C20.6476 1.45801 20.704 1.51434 20.704 1.62701V10.831C20.704 10.9437 20.6476 11 20.535 11H19.183C19.0703 11 19.014 10.9437 19.014 10.831V4.38301L16.219 9.06301C16.1843 9.14101 16.1193 9.18001 16.024 9.18001H15.14C15.0533 9.18001 14.9883 9.14101 14.945 9.06301L12.15 4.44801V10.831C12.15 10.9437 12.0936 11 11.981 11H10.629Z" fill="url(#paint1_linear_0_1)" fill-opacity="0.25"/>
<path d="M24.7371 11.182C24.0264 11.182 23.4198 10.9913 22.9171 10.61C22.4144 10.22 22.0678 9.66967 21.8771 8.95901L21.8641 8.89401C21.8641 8.82467 21.9074 8.77701 21.9941 8.75101L23.3331 8.38701L23.3851 8.37401C23.4631 8.37401 23.5151 8.42168 23.5411 8.51701C23.6364 8.81168 23.7838 9.04567 23.9831 9.21901C24.1911 9.38367 24.4424 9.46601 24.7371 9.46601C25.2138 9.46601 25.5518 9.30567 25.7511 8.98501C25.9591 8.65567 26.0631 8.18767 26.0631 7.58101V3.10901H23.4111C23.2984 3.10901 23.2421 3.05267 23.2421 2.94001V1.62701C23.2421 1.51434 23.2984 1.45801 23.4111 1.45801H27.6491C27.7618 1.45801 27.8181 1.51434 27.8181 1.62701V7.76301C27.8181 10.0423 26.7911 11.182 24.7371 11.182Z" fill="url(#paint2_linear_0_1)" fill-opacity="0.25"/>
<path fill-rule="evenodd" clip-rule="evenodd" d="M7.22804 11C7.14137 11 7.07637 10.961 7.03304 10.883L4.40704 6.37201L2.79504 8.19201V10.831C2.79504 10.9437 2.73871 11 2.62604 11H1.20904C1.09637 11 1.04004 10.9437 1.04004 10.831V1.62701C1.04004 1.51434 1.09637 1.45801 1.20904 1.45801H2.62604C2.73871 1.45801 2.79504 1.51434 2.79504 1.62701V5.99501L6.61704 1.54901C6.66904 1.48834 6.73837 1.45801 6.82504 1.45801H8.48904C8.58437 1.45801 8.63204 1.49267 8.63204 1.56201C8.63204 1.59667 8.61471 1.63134 8.58004 1.66601L5.56404 5.07201L9.02204 10.792C9.03937 10.844 9.04804 10.8743 9.04804 10.883C9.04804 10.9177 9.03504 10.948 9.00904 10.974C8.98304 10.9913 8.94837 11 8.90504 11H7.22804ZM6.8004 5.1842L9.45996 9.58347V2.15619C9.41349 2.23043 9.36322 2.29261 9.31679 2.34241L6.8004 5.1842ZM9.55394 1.15121C9.60475 1.0305 9.6813 0.906959 9.7951 0.793151C10.077 0.511305 10.4185 0.458008 10.629 0.458008H12.124C12.3067 0.458008 12.5354 0.495808 12.7587 0.629765C12.9598 0.750401 13.1022 0.916663 13.195 1.09134L15.6159 5.11339L18.0196 1.072C18.1115 0.912505 18.2503 0.749995 18.4507 0.629765C18.6599 0.504274 18.8809 0.458008 19.079 0.458008H20.535C20.7454 0.458008 21.087 0.511305 21.3688 0.793151C21.6507 1.075 21.704 1.41653 21.704 1.62701V7.79402C21.7049 7.79374 21.7058 7.79346 21.7068 7.79318L21.7192 7.78944L23.0807 7.41935L23.262 7.37401H23.3851C23.6457 7.37401 23.9278 7.46131 24.1583 7.6726C24.3547 7.85259 24.4493 8.06375 24.4965 8.22111C24.5371 8.34193 24.5829 8.40774 24.6196 8.44574C24.6373 8.45532 24.6701 8.46601 24.7371 8.46601C24.8353 8.46601 24.8875 8.4533 24.9085 8.44644C24.9737 8.34001 25.0631 8.08811 25.0631 7.58101V4.10901H23.4111C23.2006 4.10901 22.8591 4.05571 22.5773 3.77387C22.2954 3.49202 22.2421 3.15049 22.2421 2.94001V1.62701C22.2421 1.41653 22.2954 1.075 22.5773 0.793151C22.8591 0.511305 23.2006 0.458008 23.4111 0.458008H27.6491C27.8596 0.458008 28.2011 0.511305 28.483 0.793152C28.7648 1.075 28.8181 1.41653 28.8181 1.62701V7.76301C28.8181 9.0326 28.5343 10.1715 27.7907 10.9967C27.0293 11.8417 25.9467 12.182 24.7371 12.182C23.8371 12.182 23.011 11.9364 22.3127 11.4067L22.3041 11.4001C22.0788 11.2254 21.8792 11.0292 21.704 10.8141V10.831C21.704 11.0415 21.6507 11.383 21.3688 11.6649C21.087 11.9467 20.7454 12 20.535 12H19.183C18.9725 12 18.631 11.9467 18.3491 11.6649C18.0673 11.383 18.014 11.0415 18.014 10.831V8.00773L17.0961 9.54454C17.0034 9.72 16.8606 9.88712 16.6587 10.0083C16.4354 10.1422 16.2067 10.18 16.024 10.18H15.14C14.9419 10.18 14.7209 10.1337 14.5117 10.0083C14.3133 9.8892 14.1752 9.72868 14.0833 9.57069L13.15 8.02954V10.831C13.15 11.0415 13.0967 11.383 12.8148 11.6649C12.533 11.9467 12.1914 12 11.981 12H10.629C10.4185 12 10.077 11.9467 9.7951 11.6649C9.78404 11.6538 9.77334 11.6427 9.76297 11.6314C9.74783 11.6485 9.73221 11.6651 9.71614 11.6811L9.64613 11.7511L9.56374 11.8061C9.32127 11.9677 9.072 12 8.90504 12H7.22804C7.02994 12 6.80895 11.9537 6.59979 11.8283C6.3971 11.7066 6.25736 11.5418 6.16555 11.3805L4.23862 8.07038L3.79504 8.57119V10.831C3.79504 11.0415 3.74174 11.383 3.4599 11.6649C3.17805 11.9467 2.83652 12 2.62604 12H1.20904C0.998561 12 0.657029 11.9467 0.375182 11.6649C0.0933358 11.383 0.0400391 11.0415 0.0400391 10.831V1.62701C0.0400391 1.41653 0.0933357 1.075 0.375182 0.793151C0.657028 0.511305 0.998561 0.458008 1.20904 0.458008H2.62604C2.83652 0.458008 3.17805 0.511305 3.4599 0.793151C3.74174 1.075 3.79504 1.41653 3.79504 1.62701V3.29773L5.85779 0.898212C5.85801 0.897945 5.85824 0.897679 5.85847 0.897413C5.85856 0.897316 5.85839 0.89751 5.85847 0.897413C6.11785 0.595479 6.47483 0.458008 6.82504 0.458008H8.48904C8.62818 0.458008 8.91319 0.477986 9.18446 0.675273C9.36782 0.808626 9.4855 0.977594 9.55394 1.15121ZM12.15 4.44801L14.945 9.06301C14.9883 9.14101 15.0533 9.18001 15.14 9.18001H16.024C16.1193 9.18001 16.1843 9.14101 16.219 9.06301L19.014 4.38301V10.831C19.014 10.9437 19.0703 11 19.183 11H20.535C20.6476 11 20.704 10.9437 20.704 10.831V1.62701C20.704 1.51434 20.6476 1.45801 20.535 1.45801H19.079C18.9923 1.45801 18.9273 1.49701 18.884 1.57501L15.621 7.06101L12.319 1.57501C12.2843 1.49701 12.2193 1.45801 12.124 1.45801H10.629C10.5163 1.45801 10.46 1.51434 10.46 1.62701V10.831C10.46 10.9437 10.5163 11 10.629 11H11.981C12.0936 11 12.15 10.9437 12.15 10.831V4.44801ZM26.0631 3.10901V7.58101C26.0631 8.18767 25.9591 8.65567 25.7511 8.98501C25.5518 9.30568 25.2138 9.46601 24.7371 9.46601C24.4424 9.46601 24.1911 9.38367 23.9831 9.21901C23.7838 9.04567 23.6364 8.81167 23.5411 8.51701C23.5151 8.42167 23.4631 8.37401 23.3851 8.37401L23.3331 8.38701L21.9941 8.75101C21.9074 8.77701 21.8641 8.82468 21.8641 8.89401L21.8771 8.95901C22.0678 9.66967 22.4144 10.22 22.9171 10.61C23.4198 10.9913 24.0264 11.182 24.7371 11.182C26.7911 11.182 27.8181 10.0423 27.8181 7.76301V1.62701C27.8181 1.51434 27.7618 1.45801 27.6491 1.45801H23.4111C23.2984 1.45801 23.2421 1.51434 23.2421 1.62701V2.94001C23.2421 3.05267 23.2984 3.10901 23.4111 3.10901H26.0631Z" fill="black"/>
<defs>
<linearGradient id="paint0_linear_0_1" x1="-5.41901" y1="5.25273" x2="44.3168" y2="5.25273" gradientUnits="userSpaceOnUse">
<stop stop-color="#2522BA"/>
<stop offset="0.417938" stop-color="#5856E9"/>
<stop offset="1" stop-color="#CBCBE9"/>
</linearGradient>
<linearGradient id="paint1_linear_0_1" x1="-5.41901" y1="5.25273" x2="44.3168" y2="5.25273" gradientUnits="userSpaceOnUse">
<stop stop-color="#2522BA"/>
<stop offset="0.417938" stop-color="#5856E9"/>
<stop offset="1" stop-color="#CBCBE9"/>
</linearGradient>
<linearGradient id="paint2_linear_0_1" x1="-5.41901" y1="5.25273" x2="44.3168" y2="5.25273" gradientUnits="userSpaceOnUse">
<stop stop-color="#2522BA"/>
<stop offset="0.417938" stop-color="#5856E9"/>
<stop offset="1" stop-color="#CBCBE9"/>
</linearGradient>
</defs>
</svg>
