<svg width="16" height="10" viewBox="0 0 16 10" fill="none" xmlns="http://www.w3.org/2000/svg">
<path d="M8.71533 0.0126953C8.73649 0.00846354 8.75553 0.00634766 8.77246 0.00634766C8.79362 0.00211589 8.81266 0 8.82959 0C8.90576 0 8.96712 0.0253906 9.01367 0.0761719C9.06022 0.122721 9.09196 0.207357 9.10889 0.330078C9.11735 0.40625 9.13005 0.51416 9.14697 0.653809C9.16813 0.789225 9.18929 0.941569 9.21045 1.11084C9.23584 1.27588 9.26123 1.44727 9.28662 1.625C9.31624 1.80273 9.34163 1.96777 9.36279 2.12012C9.38395 2.26823 9.40299 2.3973 9.41992 2.50732C9.43685 2.61312 9.44743 2.68083 9.45166 2.71045C9.54476 3.45947 9.62728 4.06038 9.69922 4.51318C9.77116 4.96598 9.82194 5.30029 9.85156 5.51611L10.2769 8.9502L10.2134 9.14697C10.2049 9.1766 10.1499 9.21257 10.0483 9.25488C9.94678 9.2972 9.82406 9.34163 9.68018 9.38818C9.5363 9.43896 9.37972 9.48763 9.21045 9.53418C9.04118 9.58073 8.8846 9.62305 8.74072 9.66113C8.59684 9.69922 8.47412 9.72884 8.37256 9.75C8.27523 9.77539 8.22445 9.78809 8.22021 9.78809C8.11865 9.78809 8.03825 9.71403 7.979 9.56592C7.91976 9.41781 7.87109 9.22949 7.83301 9.00098C7.79492 8.77246 7.76318 8.52279 7.73779 8.25195C7.71663 7.98112 7.69124 7.72087 7.66162 7.47119C7.63623 7.26383 7.61296 7.05436 7.5918 6.84277C7.57064 6.63118 7.54736 6.41536 7.52197 6.19531L7.27441 4.3418L4.91943 8.65186C4.84749 8.75342 4.77555 8.82747 4.70361 8.87402C4.63167 8.91634 4.56396 8.9375 4.50049 8.9375C4.40739 8.9375 4.33333 8.90999 4.27832 8.85498C4.22754 8.79997 4.19157 8.73226 4.17041 8.65186C4.09001 8.38525 4.02018 8.16097 3.96094 7.979C3.90592 7.79281 3.85303 7.62354 3.80225 7.47119C3.7557 7.31885 3.71126 7.17074 3.66895 7.02686C3.62663 6.88298 3.57796 6.71794 3.52295 6.53174C3.47217 6.34131 3.41292 6.11914 3.34521 5.86523C3.28174 5.6071 3.20345 5.29183 3.11035 4.91943L2.91357 5.8335L1.99951 9.71191C1.98682 9.7627 1.93392 9.78809 1.84082 9.78809C1.75195 9.78809 1.62923 9.77116 1.47266 9.7373C1.32031 9.70345 1.15951 9.66113 0.990234 9.61035C0.825195 9.5638 0.662272 9.51302 0.501465 9.45801C0.344889 9.40723 0.220052 9.36068 0.126953 9.31836C0.105794 9.3099 0.0782878 9.29085 0.0444336 9.26123C0.0148112 9.22738 0 9.1766 0 9.10889C0 9.09196 0.00634766 9.05599 0.019043 9.00098C0.0317383 8.94596 0.0465495 8.88249 0.0634766 8.81055C0.0846354 8.73438 0.105794 8.6582 0.126953 8.58203C0.152344 8.50586 0.175618 8.43815 0.196777 8.37891C0.25179 8.23503 0.300456 8.06576 0.342773 7.87109C0.389323 7.67643 0.431641 7.47965 0.469727 7.28076C0.507812 7.08187 0.541667 6.89144 0.571289 6.70947C0.605143 6.52751 0.636882 6.37516 0.666504 6.25244L1.44727 2.60889L1.68213 1.58057C1.71175 1.44938 1.73926 1.32243 1.76465 1.19971C1.79427 1.07275 1.81966 0.958496 1.84082 0.856934C1.86198 0.755371 1.87891 0.672852 1.8916 0.609375C1.9043 0.545898 1.91064 0.509928 1.91064 0.501465L3.49756 0.0126953C3.5568 0.0126953 3.60758 0.019043 3.6499 0.0317383C3.69645 0.0402018 3.72607 0.074056 3.73877 0.133301L5.00195 4.1958L6.73486 0.545898L8.71533 0.0126953Z" fill="url(#paint0_linear_11_83)"/>
<path d="M12.708 0.996582C12.7122 0.92041 12.7165 0.856934 12.7207 0.806152C12.7249 0.755371 12.7313 0.713053 12.7397 0.679199C12.7524 0.645345 12.7694 0.619954 12.7905 0.603027C12.8117 0.5861 12.8455 0.573405 12.8921 0.564941L15.0884 0.0380859C15.1434 0.0211589 15.1984 0.0126953 15.2534 0.0126953C15.3127 0.0126953 15.3529 0.0317383 15.374 0.0698242C15.3994 0.10791 15.4121 0.17985 15.4121 0.285645L15.2217 2.32324L15.1074 3.54199C15.082 3.82552 15.0566 4.10059 15.0312 4.36719C15.0059 4.63379 14.9805 4.88135 14.9551 5.10986C14.9339 5.33415 14.9149 5.53516 14.8979 5.71289C14.881 5.88639 14.8683 6.02604 14.8599 6.13184L14.8472 6.31592C14.8133 6.79834 14.7202 7.2596 14.5679 7.69971C14.4198 8.13981 14.2209 8.52913 13.9712 8.86768C13.7257 9.20199 13.4316 9.46859 13.0889 9.66748C12.7503 9.86637 12.3737 9.96582 11.959 9.96582C11.7474 9.96582 11.5887 9.96159 11.4829 9.95312C11.3813 9.94466 11.3073 9.92985 11.2607 9.90869C11.2184 9.89176 11.1909 9.86637 11.1782 9.83252C11.1698 9.8029 11.1528 9.76481 11.1274 9.71826L10.918 8.17578C10.918 8.16732 10.9307 8.15039 10.9561 8.125C10.9857 8.09538 11.009 8.07633 11.0259 8.06787C11.1782 8.00863 11.3285 7.94092 11.4766 7.86475C11.6247 7.78857 11.7559 7.69971 11.8701 7.59814C11.9886 7.49235 12.0838 7.36963 12.1558 7.22998C12.2319 7.0861 12.2743 6.91895 12.2827 6.72852L12.708 0.996582Z" fill="url(#paint1_linear_11_83)"/>
<defs>
<linearGradient id="paint0_linear_11_83" x1="-11.5" y1="5" x2="23.5522" y2="4.83795" gradientUnits="userSpaceOnUse">
<stop stop-color="#2522BA"/>
<stop offset="0.36693" stop-color="#5856E9"/>
<stop offset="1" stop-color="#CBCBE9"/>
</linearGradient>
<linearGradient id="paint1_linear_11_83" x1="-11.5" y1="5" x2="23.5522" y2="4.83795" gradientUnits="userSpaceOnUse">
<stop stop-color="#2522BA"/>
<stop offset="0.36693" stop-color="#5856E9"/>
<stop offset="1" stop-color="#CBCBE9"/>
</linearGradient>
</defs>
</svg>
