<svg width="20" height="13" viewBox="0 0 20 13" fill="none" xmlns="http://www.w3.org/2000/svg">
<path d="M1.20904 11C1.09637 11 1.04004 10.9437 1.04004 10.831V1.62701C1.04004 1.51434 1.09637 1.45801 1.20904 1.45801H2.70404C2.79937 1.45801 2.86437 1.49701 2.89904 1.57501L6.20104 7.06101L9.46404 1.57501C9.50737 1.49701 9.57237 1.45801 9.65904 1.45801H11.115C11.2277 1.45801 11.284 1.51434 11.284 1.62701V10.831C11.284 10.9437 11.2277 11 11.115 11H9.76304C9.65037 11 9.59404 10.9437 9.59404 10.831V4.38301L6.79904 9.06301C6.76437 9.14101 6.69937 9.18001 6.60404 9.18001H5.72004C5.63337 9.18001 5.56837 9.14101 5.52504 9.06301L2.73004 4.44801V10.831C2.73004 10.9437 2.67371 11 2.56104 11H1.20904Z" fill="#2B2B2B"/>
<path d="M15.3172 11.182C14.6065 11.182 13.9999 10.9913 13.4972 10.61C12.9945 10.22 12.6479 9.66967 12.4572 8.95901L12.4442 8.89401C12.4442 8.82467 12.4875 8.77701 12.5742 8.75101L13.9132 8.38701L13.9652 8.37401C14.0432 8.37401 14.0952 8.42168 14.1212 8.51701C14.2165 8.81168 14.3639 9.04567 14.5632 9.21901C14.7712 9.38367 15.0225 9.46601 15.3172 9.46601C15.7939 9.46601 16.1319 9.30567 16.3312 8.98501C16.5392 8.65567 16.6432 8.18767 16.6432 7.58101V3.10901H13.9912C13.8785 3.10901 13.8222 3.05267 13.8222 2.94001V1.62701C13.8222 1.51434 13.8785 1.45801 13.9912 1.45801H18.2292C18.3419 1.45801 18.3982 1.51434 18.3982 1.62701V7.76301C18.3982 10.0423 17.3712 11.182 15.3172 11.182Z" fill="#2B2B2B"/>
<path fill-rule="evenodd" clip-rule="evenodd" d="M1.20904 1.45801C1.09637 1.45801 1.04004 1.51434 1.04004 1.62701V10.831C1.04004 10.9437 1.09637 11 1.20904 11H2.56104C2.67371 11 2.73004 10.9437 2.73004 10.831V4.44801L5.52504 9.06301C5.56837 9.14101 5.63337 9.18001 5.72004 9.18001H6.60404C6.69937 9.18001 6.76437 9.14101 6.79904 9.06301L9.59404 4.38301V10.831C9.59404 10.9437 9.65037 11 9.76304 11H11.115C11.2277 11 11.284 10.9437 11.284 10.831V1.62701C11.284 1.51434 11.2277 1.45801 11.115 1.45801H9.65904C9.57237 1.45801 9.50737 1.49701 9.46404 1.57501L6.20104 7.06101L2.89904 1.57501C2.86437 1.49701 2.79937 1.45801 2.70404 1.45801H1.20904ZM3.77508 1.09133C3.68229 0.91666 3.53984 0.7504 3.33879 0.629765C3.11552 0.495808 2.88674 0.458008 2.70404 0.458008H1.20904C0.998561 0.458008 0.657028 0.511305 0.375182 0.793151C0.0933357 1.075 0.0400391 1.41653 0.0400391 1.62701V10.831C0.0400391 11.0415 0.0933358 11.383 0.375182 11.6649C0.657029 11.9467 0.998561 12 1.20904 12H2.56104C2.77152 12 3.11305 11.9467 3.3949 11.6649C3.67674 11.383 3.73004 11.0415 3.73004 10.831V8.02954L4.66341 9.57069C4.75527 9.72868 4.89337 9.8892 5.09179 10.0083C5.30094 10.1337 5.52194 10.18 5.72004 10.18H6.60404C6.78674 10.18 7.01552 10.1422 7.23879 10.0083C7.44066 9.88713 7.58345 9.72 7.67621 9.54455L8.59404 8.00773V10.831C8.59404 11.0415 8.64734 11.383 8.92918 11.6649C9.21103 11.9467 9.55256 12 9.76304 12H11.115C11.3255 12 11.667 11.9467 11.9489 11.6649C12.2307 11.383 12.284 11.0415 12.284 10.831V10.8141C12.4593 11.0292 12.659 11.2253 12.8842 11.4001L12.8928 11.4067C13.5911 11.9364 14.4172 12.182 15.3172 12.182C16.5268 12.182 17.6094 11.8417 18.3708 10.9967C19.1144 10.1715 19.3982 9.0326 19.3982 7.76301V1.62701C19.3982 1.41653 19.3449 1.075 19.063 0.793152C18.7812 0.511305 18.4397 0.458008 18.2292 0.458008H13.9912C13.7807 0.458008 13.4392 0.511305 13.1573 0.793151C12.8755 1.075 12.8222 1.41653 12.8222 1.62701V2.94001C12.8222 3.15049 12.8755 3.49202 13.1573 3.77387C13.4392 4.05571 13.7807 4.10901 13.9912 4.10901H15.6432V7.58101C15.6432 8.08812 15.5538 8.34001 15.4885 8.44644C15.4676 8.4533 15.4154 8.46601 15.3172 8.46601C15.2501 8.46601 15.2174 8.45532 15.1997 8.44574C15.163 8.40776 15.1172 8.34199 15.0766 8.22126C15.0294 8.06388 14.9348 7.85265 14.7384 7.6726C14.5079 7.46131 14.2257 7.37401 13.9652 7.37401H13.8421L13.6607 7.41935L12.2993 7.78944L12.2868 7.79318C12.2859 7.79346 12.285 7.79374 12.284 7.79402V1.62701C12.284 1.41653 12.2307 1.075 11.9489 0.793151C11.667 0.511305 11.3255 0.458008 11.115 0.458008H9.65904C9.46094 0.458008 9.23994 0.504274 9.03079 0.629765C8.83041 0.749994 8.69156 0.912502 8.5997 1.072L6.19594 5.11339L3.77508 1.09133ZM14.1212 8.51701C14.0952 8.42167 14.0432 8.37401 13.9652 8.37401L13.9132 8.38701L12.5742 8.75101C12.4875 8.77701 12.4442 8.82468 12.4442 8.89401L12.4572 8.95901C12.6479 9.66967 12.9945 10.22 13.4972 10.61C13.9999 10.9913 14.6065 11.182 15.3172 11.182C17.3712 11.182 18.3982 10.0423 18.3982 7.76301V1.62701C18.3982 1.51434 18.3419 1.45801 18.2292 1.45801H13.9912C13.8785 1.45801 13.8222 1.51434 13.8222 1.62701V2.94001C13.8222 3.05267 13.8785 3.10901 13.9912 3.10901H16.6432V7.58101C16.6432 8.18767 16.5392 8.65567 16.3312 8.98501C16.1319 9.30568 15.7939 9.46601 15.3172 9.46601C15.0225 9.46601 14.7712 9.38367 14.5632 9.21901C14.3639 9.04567 14.2165 8.81167 14.1212 8.51701Z" fill="black"/>
</svg>
