<svg width="17" height="11" viewBox="0 0 17 11" fill="none" xmlns="http://www.w3.org/2000/svg">
<path d="M0.208978 10C0.0963113 10 0.039978 9.94368 0.039978 9.83101V0.627008C0.039978 0.514341 0.0963113 0.458008 0.208978 0.458008H1.70398C1.79931 0.458008 1.86431 0.497008 1.89898 0.575008L5.20098 6.06101L8.46398 0.575008C8.50731 0.497008 8.57231 0.458008 8.65898 0.458008H10.115C10.2276 0.458008 10.284 0.514341 10.284 0.627008V9.83101C10.284 9.94368 10.2276 10 10.115 10H8.76298C8.65031 10 8.59398 9.94368 8.59398 9.83101V3.38301L5.79898 8.06301C5.76431 8.14101 5.69931 8.18001 5.60398 8.18001H4.71998C4.63331 8.18001 4.56831 8.14101 4.52498 8.06301L1.72998 3.44801V9.83101C1.72998 9.94368 1.67364 10 1.56098 10H0.208978Z" fill="#161556"/>
<path d="M13.2771 10.182C12.5665 10.182 11.9598 9.99134 11.4571 9.61001C10.9545 9.22001 10.6078 8.66967 10.4171 7.95901L10.4041 7.89401C10.4041 7.82467 10.4475 7.77701 10.5341 7.75101L11.8731 7.38701L11.9251 7.37401C12.0031 7.37401 12.0551 7.42168 12.0811 7.51701C12.1765 7.81168 12.3238 8.04567 12.5231 8.21901C12.7311 8.38367 12.9825 8.46601 13.2771 8.46601C13.7538 8.46601 14.0918 8.30567 14.2911 7.98501C14.4991 7.65567 14.6031 7.18767 14.6031 6.58101V2.10901H11.9511C11.8385 2.10901 11.7821 2.05267 11.7821 1.94001V0.627008C11.7821 0.514341 11.8385 0.458008 11.9511 0.458008H16.1891C16.3018 0.458008 16.3581 0.514341 16.3581 0.627008V6.76301C16.3581 9.04234 15.3311 10.182 13.2771 10.182Z" fill="#161556"/>
</svg>
